<svg width="64" height="64" viewBox="0 0 64 64" fill="none" xmlns="http://www.w3.org/2000/svg">
<path d="M24.0002 42.6663H29.3335V21.333H24.0002V42.6663ZM32.0002 5.33301C17.2802 5.33301 5.3335 17.2797 5.3335 31.9997C5.3335 46.7197 17.2802 58.6663 32.0002 58.6663C46.7202 58.6663 58.6668 46.7197 58.6668 31.9997C58.6668 17.2797 46.7202 5.33301 32.0002 5.33301ZM32.0002 53.333C20.2402 53.333 10.6668 43.7597 10.6668 31.9997C10.6668 20.2397 20.2402 10.6663 32.0002 10.6663C43.7602 10.6663 53.3335 20.2397 53.3335 31.9997C53.3335 43.7597 43.7602 53.333 32.0002 53.333ZM34.6668 42.6663H40.0002V21.333H34.6668V42.6663Z" fill="white"/>
</svg>
