<svg width="64" height="64" viewBox="0 0 64 64" fill="none" xmlns="http://www.w3.org/2000/svg">
<path d="M8 23.9999V39.9999H18.6667L32 53.3333V10.6666L18.6667 23.9999H8ZM26.6667 23.5466V40.4533L20.88 34.6666H13.3333V29.3333H20.88L26.6667 23.5466ZM44 31.9999C44 27.2799 41.28 23.2266 37.3333 21.2533V42.7199C41.28 40.7733 44 36.7199 44 31.9999ZM37.3333 8.61328V14.1066C45.04 16.3999 50.6667 23.5466 50.6667 31.9999C50.6667 40.4533 45.04 47.5999 37.3333 49.8933V55.3866C48.0267 52.9599 56 43.4133 56 31.9999C56 20.5866 48.0267 11.0399 37.3333 8.61328Z" fill="white"/>
</svg>
