<svg width="64" height="64" viewBox="0 0 64 64" fill="none" xmlns="http://www.w3.org/2000/svg">
<path d="M11.5735 7.81348L7.81348 11.5735L19.4401 23.2001L18.6668 24.0001H8.00014V40.0001H18.6668L32.0001 53.3335V35.7601L43.1468 46.9068C41.4135 48.2135 39.4668 49.2535 37.3335 49.8668V55.3601C40.9068 54.5601 44.1868 52.9068 46.9601 50.6935L52.4268 56.1601L56.1868 52.4001L11.5735 7.81348ZM26.6668 40.4535L20.8801 34.6668H13.3335V29.3335H20.8801L23.2268 26.9868L26.6668 30.4268V40.4535ZM50.6668 32.0001C50.6668 34.1868 50.2668 36.2935 49.5735 38.2401L53.6535 42.3201C55.1468 39.2001 56.0001 35.7068 56.0001 32.0001C56.0001 20.5868 48.0268 11.0401 37.3335 8.61348V14.1068C45.0401 16.4001 50.6668 23.5468 50.6668 32.0001ZM32.0001 10.6668L26.9868 15.6801L32.0001 20.6935V10.6668ZM44.0001 32.0001C44.0001 27.2801 41.2801 23.2268 37.3335 21.2535V26.0268L43.9468 32.6401C43.9735 32.4268 44.0001 32.2135 44.0001 32.0001Z" fill="white"/>
</svg>
